<?xml version="1.0" encoding="UTF-8" standalone="no"?>
<!-- Created with Inkscape (http://www.inkscape.org/) -->

<svg
   width="478mm"
   height="341mm"
   viewBox="0 0 478 341"
   version="1.1"
   id="svg1"
   inkscape:version="1.4.2 (1:1.4.2+202505120737+ebf0e940d0)"
   sodipodi:docname="skyline-dark.svg"
   xmlns:inkscape="http://www.inkscape.org/namespaces/inkscape"
   xmlns:sodipodi="http://sodipodi.sourceforge.net/DTD/sodipodi-0.dtd"
   xmlns="http://www.w3.org/2000/svg"
   xmlns:svg="http://www.w3.org/2000/svg">
  <sodipodi:namedview
     id="namedview1"
     pagecolor="#ffffff"
     bordercolor="#000000"
     borderopacity="0.25"
     inkscape:showpageshadow="2"
     inkscape:pageopacity="0.0"
     inkscape:pagecheckerboard="0"
     inkscape:deskcolor="#d1d1d1"
     inkscape:document-units="mm"
     inkscape:zoom="0.37193112"
     inkscape:cx="700.3985"
     inkscape:cy="574.03102"
     inkscape:window-width="1920"
     inkscape:window-height="1011"
     inkscape:window-x="0"
     inkscape:window-y="0"
     inkscape:window-maximized="1"
     inkscape:current-layer="layer1" />
  <defs
     id="defs1" />
  <g
     inkscape:label="Layer 1"
     inkscape:groupmode="layer"
     id="layer1">
    <path
       d="m 433.20803,2.3912198 c -3.08471,-0.0158 -5.75047,0.50812 -7.63932,1.82211 C 415.49479,11.22126 412.86664,30.49338 412.86664,30.49338 c 0,0 -17.08176,4.81777 -24.5277,14.01569 -7.44593,9.19793 -5.25601,24.09 -5.25601,24.09 0,0 -13.13951,-5.6941 -21.89944,1.75183 -8.75992,7.44594 -7.88427,16.64394 -7.88427,16.64394 0,0 -18.61623,8.32193 -25.2765,17.51986 -6.66025,9.19791 0,44.23761 0,44.23761 0,0 -1.5e-4,7.00799 -10.63914,8.32198 -10.639,1.31398 -10.94969,-5.25639 -20.14761,-3.9424 -9.19792,1.31399 -15.76803,7.44606 -15.76803,7.44606 0,0 -2.19016,-6.56998 -9.6361,-8.32197 -7.44594,-1.75198 -14.4539,6.13192 -14.4539,6.13192 0,0 -2.18971,-13.13975 -11.82563,-16.20573 -9.63592,-3.06597 -20.14813,-1.31413 -20.14813,-1.31413 0,0 -1.75193,-38.9812 -15.32981,-46.42714 -13.57788,-7.44593 -19.2717,1.31362 -19.2717,1.31362 0,0 -3.06593,-11.38802 -12.26385,-10.51202 -9.19793,0.87599 -13.13976,15.76803 -13.13976,15.76803 0,0 -13.09021,-11.82572 -20.58583,-14.01569 -7.49563,-2.18999 -13.13976,-1.75234 -13.13976,-1.75234 0,0 2.62777,-16.20542 -3.50418,-22.77536 -6.13194,-6.56995 -21.02404,-10.07432 -21.02404,-10.07432 0,0 -1.21239,-34.67442 -43.361699,-42.04756 -26.69764,-4.6701902 -47.44568,7.8667 -47.44568,7.8667 l -0.5581,37.77444 c 3.79653,-1.86789 16.13761,-6.66472 32.07194,0.21601 19.27184,8.32193 11.82615,26.28005 11.82615,26.28005 0,0 10.97264,-11.65179 22.33766,-10.07432 12.21696,1.69571 19.271689,14.4539 19.271689,14.4539 0,0 12.26419,-0.43802 20.14812,6.13192 7.88394,6.56994 5.69371,24.96592 5.69371,24.96592 0,0 21.02418,-1.31363 25.40414,4.81831 4.37996,6.13195 2.18953,11.82563 2.18953,11.82563 0,0 24.09007,-2.18987 46.86587,7.44606 13.64952,5.77479 38.54339,27.15545 38.54339,27.15545 0,0 5.69428,-5.69379 31.53606,-4.81779 25.84178,0.87598 34.6015,11.38793 34.6015,11.38793 0,0 6.57027,-13.13962 10.95024,-14.8916 4.37996,-1.75199 21.46173,-2.62826 21.46173,-2.62826 0,0 4.81761,-15.76801 12.70155,-18.83399 7.88393,-3.06597 18.39578,0 18.39578,0 0,0 4.5e-4,-9.19774 0.87643,-10.94972 0.876,-1.75199 4.37958,-9.19789 4.37958,-9.19789 0,0 -8.75982,-4.81777 -7.00784,-10.94972 1.75199,-6.13195 10.51202,-2.19005 10.51202,-2.19005 0,0 -3.50415,-6.57008 7.88375,-21.89995 11.3879,-15.32986 28.9078,-8.75967 28.9078,-8.75967 0,0 6.13217,-17.95791 17.95808,-22.77587 5.91294,-2.40897 13.77424,-3.09816 20.15742,-3.18482 6.38319,-0.0867 11.2882,0.42891 11.2882,0.42891 l -1.52445,166.87664 c 2.62545,-0.84789 4.31033,-1.36581 4.31033,-1.36581 l 0.30282,10.31668 -0.0114,-213.10482 c 0,0 -21.23646,-10.2059002 -34.60358,-10.2743102 z"
       style="display:inline;fill:#2a3f52;fill-rule:evenodd;stroke-width:1.21779;stroke-linecap:round;stroke-dasharray:1.21779, 2.43559;paint-order:stroke markers fill;fill-opacity:1"
       id="path53" />
    <path
       d="m 453.44607,49.51393 c -6.38318,0.0867 -14.24448,0.77585 -20.15742,3.18482 -11.82591,4.81796 -17.95808,22.77587 -17.95808,22.77587 0,0 -17.5199,-6.57019 -28.9078,8.75967 -11.3879,15.32987 -7.88375,21.89995 -7.88375,21.89995 0,0 -8.76003,-3.9419 -10.51202,2.19005 -1.75198,6.13195 7.00784,10.94972 7.00784,10.94972 0,0 -3.50358,7.4459 -4.37958,9.19789 -0.87598,1.75198 -0.87643,10.94972 -0.87643,10.94972 0,0 -10.51185,-3.06597 -18.39578,0 -7.88394,3.06598 -12.70155,18.83399 -12.70155,18.83399 0,0 -17.08177,0.87627 -21.46173,2.62826 -4.37997,1.75198 -10.95024,14.8916 -10.95024,14.8916 0,0 -8.75972,-10.51195 -34.6015,-11.38793 -25.84178,-0.876 -31.53606,4.81779 -31.53606,4.81779 0,0 -24.89387,-21.38066 -38.54339,-27.15545 -22.7758,-9.63593 -46.86587,-7.44606 -46.86587,-7.44606 0,0 2.19043,-5.69368 -2.18953,-11.82563 -4.37996,-6.13194 -25.40414,-4.81831 -25.40414,-4.81831 0,0 2.19023,-18.39598 -5.69371,-24.96592 -7.88393,-6.56994 -20.14812,-6.13192 -20.14812,-6.13192 0,0 -7.054729,-12.75819 -19.271689,-14.4539 -11.36502,-1.57747 -22.33766,10.07432 -22.33766,10.07432 0,0 7.44569,-17.95812 -11.82615,-26.28005 -19.27184,-8.32192 -33.28737,0.43821 -33.28737,0.43821 l -3.64164,153.73067 c 0.25137,-0.10489 0.63247,-0.22573 1.20354,-0.33693 l 3.65198,-42.69558 c 0,0 6.70901,-3.72724 17.89089,-3.54087 6.70913,0.11182 15.02854,1.63244 24.475,6.21254 25.19054,12.21359 24.42693,21.37389 24.42693,21.37389 0,0 9.92352,-3.81709 20.228739,-1.52704 10.30523,2.29005 16.7938,10.6872 16.7938,10.6872 0,0 4.58029,-4.96172 9.54206,-2.67167 4.96178,2.29005 2.28978,8.3969 2.28978,8.3969 0,0 20.99217,1.14498 35.11414,2.67168 14.12197,1.5267 27.48049,7.63312 27.48049,7.63312 0,0 26.71712,-0.76326 43.12915,-0.76326 8.27006,0 24.09975,3.10136 37.77031,6.17843 0.37723,-0.51784 0.84358,-1.06355 1.41955,-1.6092 2.55334,-2.41895 4.97231,0.67179 4.97231,0.67179 0,0 -2.01622,-5.64419 2.01538,-7.65999 4.0316,-2.0158 5.91333,1.07487 5.91333,1.07487 0,0 2.01571,-3.62831 5.37538,-3.09077 3.35966,0.53755 3.76256,2.95641 3.76256,2.95641 0,0 0.67221,-3.6282 3.62872,-3.6282 2.95651,0 3.49385,2.15025 3.49385,2.15025 0,0 1.07536,-2.55341 3.62871,-2.15025 2.55334,0.40316 2.01538,4.9723 2.01538,4.9723 0,0 1.20958,-0.67234 2.0159,-0.53795 0.80632,0.13438 2.15026,2.41897 2.15026,2.41897 0,0 0.13442,-3.49365 2.28461,-4.43435 2.15018,-0.94071 8.60103,5.24102 8.60103,5.24102 0,0 -3.76306,-9.27271 -1.34411,-12.22922 2.41896,-2.9565 6.29368,2.50785 6.29368,2.50785 0,0 -0.88987,-5.93292 2.37349,-6.22959 3.26335,-0.29667 4.74648,2.96623 4.74648,2.96623 0,0 2.27121,-2.95243 6.21771,-3.09439 0.56379,-0.0203 1.16172,0.0169 1.79214,0.12816 5.04337,0.89001 3.26337,7.4166 3.26337,7.4166 0,0 7.71356,-1.78002 8.90023,0 1.18668,1.78001 -2.07688,9.7901 -2.07688,9.7901 0,0 5.04377,-4.45041 7.41712,-0.89038 2.37335,3.56002 -0.59376,8.30698 -0.59376,8.30698 0,0 28.02951,-2.50692 39.55004,-2.72696 8.30879,-1.37913 15.68705,-2.29909 20.58376,-2.29909 0.1991,0 0.39869,-4.8e-4 0.59841,-10e-4 4.94947,-2.65378 10.55204,-4.42914 16.67702,-4.4173 1.60415,0.003 3.24409,0.12861 4.91753,0.39326 2.90434,0.4593 5.5312,1.18773 7.90701,2.12131 3.70134,-1.29582 7.20253,-2.452 9.7901,-3.28765 l 1.52445,-166.87664 c 0,0 -4.90501,-0.51557 -11.2882,-0.42891 z"
       style="display:inline;fill:#3e5a73;fill-rule:evenodd;stroke-width:1.21779;stroke-linecap:round;stroke-dasharray:1.21779, 2.43559;paint-order:stroke markers fill;fill-opacity:1"
       id="path51" />
    <path
       d="m 33.669111,163.79791 c -11.18188,-0.18637 -17.89089,3.54087 -17.89089,3.54087 l -3.65198,42.69558 c 0.64986,-0.12653 1.54621,-0.24038 2.77813,-0.30437 2.44854,-0.1272 6.22347,-0.0566 12.02717,0.50798 1.79564,-0.40032 3.73005,-0.72238 5.8136,-0.94878 1.53728,-0.16705 2.97307,-0.2539 4.3155,-0.26924 7.73154,-0.0883 12.3518,2.18896 15.24506,5.09943 10.08984,2.17724 16.59984,4.55734 20.36465,6.22288 0.29488,-0.94783 0.95064,-1.9707 2.37608,-2.44585 3.0197,-1.00657 4.97954,1.90687 4.97954,1.90687 0,0 0.79486,-3.39042 3.44372,-3.81424 2.64886,-0.42382 3.86747,2.5957 3.86747,2.5957 0,0 -0.10646,-1.16508 1.42988,-0.9002 0.88119,0.15193 1.62307,1.10566 2.09548,1.89136 0.76631,-0.14572 1.53906,-0.28998 2.31149,-0.43047 0.23621,-0.10802 0.48325,-0.17927 0.73225,-0.18965 0.0892,-0.004 0.17609,5.4e-4 0.26045,0.0114 4.94087,-0.87854 9.737619,-1.5751 12.528949,-1.5751 4.9957,0 46.66218,4.90731 74.35257,8.23619 5.40557,-1.04084 42.38987,-8.1 53.0934,-8.47338 11.55725,-0.40316 39.2405,8.06307 39.2405,8.06307 0,0 0.24227,-1.45036 1.53738,-3.22823 -13.67056,-3.07707 -29.50025,-6.17843 -37.77031,-6.17843 -16.41203,0 -43.12915,0.76326 -43.12915,0.76326 0,0 -13.35852,-6.10642 -27.48049,-7.63312 -14.12197,-1.5267 -35.11414,-2.67168 -35.11414,-2.67168 0,0 2.672,-6.10685 -2.28978,-8.3969 -4.96177,-2.29005 -9.54206,2.67167 -9.54206,2.67167 0,0 -6.48857,-8.39715 -16.7938,-10.6872 -10.305219,-2.29005 -20.228739,1.52704 -20.228739,1.52704 0,0 0.76361,-9.1603 -24.42693,-21.37389 -9.44646,-4.5801 -17.76587,-6.10072 -24.475,-6.21254 z"
       style="display:inline;fill:#5e7d99;fill-rule:evenodd;stroke-width:1.21779;stroke-linecap:round;stroke-dasharray:1.21779, 2.43559;paint-order:stroke markers fill;fill-opacity:1"
       id="path50" />
    <path
       d="m 14.904371,209.72999 c -3.93319,0.20432 -4.44366,0.91932 -4.44366,0.91932 l -0.42995,8.2548 c 3.3929,-3.38106 8.699,-6.83765 16.90078,-8.66614 -5.8037,-0.56457 -9.57863,-0.63518 -12.02717,-0.50798 z m 37.40133,4.38939 c 3.25345,3.27281 4.32316,7.34622 5.17798,9.756 2.98157,-1.08371 3.74086,-0.894 3.74086,-0.894 0,0 0.81743,-4.2907 4.08657,-4.2907 3.26914,0 7.15098,3.67781 7.15098,3.67781 0,0 -0.12155,-0.96615 0.20826,-2.02623 -3.76481,-1.66554 -10.27481,-4.04564 -20.36465,-6.22288 z m 54.389959,3.27267 c -2.79133,0 -7.588079,0.69656 -12.528949,1.5751 1.11866,0.14367 1.80558,1.47175 1.80558,1.47175 0,0 1.21861,-1.32405 3.76152,-0.68833 2.542909,0.63573 2.489779,2.80758 2.489779,2.80758 0,0 2.36894,-1.50599 4.38474,-0.83406 2.0158,0.67193 3.89744,4.16615 3.89744,4.16615 0,0 1.61259,-1.74706 7.65999,-2.28461 6.04739,-0.53754 26.74308,1.74718 26.74308,1.74718 l 35.47793,0.40307 c 0,0 0.23031,-0.0446 0.66146,-0.12764 -27.69039,-3.32888 -69.35687,-8.23619 -74.35257,-8.23619 z m -13.521649,1.75338 c -0.77243,0.14049 -1.54518,0.28475 -2.31149,0.43047 0.35123,0.58415 0.55346,1.07539 0.55346,1.07539 0,0 0.78812,-1.06227 1.75803,-1.50586 z"
       style="display:inline;fill:#1e3a34;fill-rule:evenodd;stroke-linecap:round;stroke-dasharray:1, 2;paint-order:stroke markers fill;fill-opacity:1"
       id="path49" />
    <path
       d="m 344.48373,202.28548 c -3.9465,0.14196 -6.21771,3.09439 -6.21771,3.09439 0,0 -1.48313,-3.2629 -4.74647,-2.96623 -3.26337,0.29667 -2.3735,6.22959 -2.3735,6.22959 0,0 -3.87472,-5.46435 -6.29368,-2.50785 -2.41895,2.95651 1.34411,12.22922 1.34411,12.22922 0,0 -6.45085,-6.18173 -8.60103,-5.24102 -2.15019,0.9407 -2.28461,4.43435 -2.28461,4.43435 0,0 -1.34394,-2.28459 -2.15026,-2.41897 -0.80632,-0.13439 -2.0159,0.53795 -2.0159,0.53795 0,0 0.53796,-4.56914 -2.01538,-4.9723 -2.55335,-0.40316 -3.62871,2.15025 -3.62871,2.15025 0,0 -0.53734,-2.15025 -3.49385,-2.15025 -2.95651,0 -3.62872,3.6282 -3.62872,3.6282 0,0 -0.4029,-2.41886 -3.76256,-2.95641 -3.35967,-0.53754 -5.37538,3.09077 -5.37538,3.09077 0,0 -1.88173,-3.09067 -5.91333,-1.07487 -4.0316,2.0158 -2.01538,7.65999 -2.01538,7.65999 0,0 -2.41897,-3.09074 -4.97231,-0.67179 -2.55335,2.41897 -2.95693,4.83743 -2.95693,4.83743 0,0 -27.68325,-8.46623 -39.2405,-8.06307 -11.55725,0.40316 -53.75486,8.60102 -53.75486,8.60102 l -35.47793,-0.40307 c 0,0 -20.69569,-2.28472 -26.74308,-1.74718 -6.0474,0.53755 -7.65999,2.28461 -7.65999,2.28461 0,0 -1.88164,-3.49422 -3.89744,-4.16615 -2.0158,-0.67193 -4.38474,0.83406 -4.38474,0.83406 0,0 0.0531,-2.17185 -2.489779,-2.80758 -2.54291,-0.63572 -3.76152,0.68833 -3.76152,0.68833 0,0 -0.79457,-1.53612 -2.06603,-1.48312 -1.27145,0.053 -2.49028,1.69551 -2.49028,1.69551 0,0 -1.1126,-2.70186 -2.64894,-2.96675 -1.53634,-0.26488 -1.42988,0.9002 -1.42988,0.9002 0,0 -1.21861,-3.01952 -3.86747,-2.5957 -2.64886,0.42382 -3.44372,3.81424 -3.44372,3.81424 0,0 -1.95984,-2.91344 -4.97954,-1.90687 -3.0197,1.00657 -2.58434,4.47208 -2.58434,4.47208 0,0 -3.88184,-3.67781 -7.15098,-3.67781 -3.26914,0 -4.08657,4.2907 -4.08657,4.2907 0,0 -0.75929,-0.18971 -3.74086,0.894 0.36486,1.02855 0.69056,1.75401 1.13016,1.98489 2.54446,1.33639 14.41838,-6.68197 34.77411,1.33635 2.82815,1.11404 5.17352,2.23326 7.115329,3.33468 35.99343,-1.25885 105.80161,-3.51252 135.79791,-3.18998 41.31282,0.44423 108.3908,9.32863 108.3908,9.32863 0,0 14.65028,-3.63507 31.77377,-7.28483 1.85466,-0.70336 3.80888,-1.14182 5.85804,-1.23713 0.0199,-9.3e-4 0.04,-0.002 0.0599,-0.003 6.86076,-1.41155 13.88807,-2.76247 20.35225,-3.83542 -11.52053,0.22004 -39.55004,2.72696 -39.55004,2.72696 0,0 2.96711,-4.74696 0.59376,-8.30698 -2.37335,-3.56003 -7.41712,0.89038 -7.41712,0.89038 0,0 3.26356,-8.01009 2.07688,-9.7901 -1.18667,-1.78002 -8.90024,0 -8.90024,0 0,0 1.78001,-6.52659 -3.26336,-7.4166 -0.63042,-0.11125 -1.22835,-0.14844 -1.79214,-0.12816 z m 123.03642,13.16819 c 0,0 -6.64356,2.04284 -14.10043,4.65346 0.29389,0.11549 0.58398,0.23389 0.87023,0.35554 6.7255,-0.58736 11.23084,-1.11725 11.23084,-1.11725 l 0.14934,9.16068 c 0.83963,0.91444 1.60952,1.85234 2.31511,2.80035 z"
       style="display:inline;fill:#254e45;fill-rule:evenodd;stroke-linecap:round;stroke-dasharray:1, 2;paint-order:stroke markers fill;fill-opacity:1"
       id="path48" />
    <path
       d="m 465.52079,219.34542 c 0,0 -4.50534,0.52989 -11.23084,1.11725 4.7724,2.02812 8.48998,4.89568 11.38018,8.04343 z m -41.60263,2.66444 c -0.19972,5.5e-4 -0.39931,0.001 -0.59841,0.001 -8.70631,0 -25.2567,2.90861 -40.936,6.13451 18.14729,-0.8052 18.14721,16.94005 18.14721,16.94005 0,0 8.89243,-15.30386 23.3872,-23.07559 z m -187.61697,5.33146 c -29.9963,-0.32254 -99.80448,1.93113 -135.79791,3.18998 12.03443,6.82607 8.5757,12.96924 8.5757,12.96924 0,0 2.96837,-2.67271 5.51284,-2.67271 2.54446,0 2.12029,4.27623 2.12029,4.27623 0,0 1.27254,-6.41447 14.84302,-6.68177 13.57048,-0.26728 19.08359,12.82919 19.08359,12.82919 0,0 10.60173,-6.94943 25.44444,-3.20755 14.84272,3.74189 13.99449,17.64027 13.99449,17.64027 0,0 0.848,-5.61268 5.51285,-5.34541 4.66486,0.26729 5.08909,4.00905 5.08909,4.00905 0,0 1.27226,-2.40512 5.93711,-2.13785 4.66485,0.26729 4.24108,4.54339 4.24108,4.54339 0,0 13.14591,-0.80193 27.14047,7.75095 5.09196,3.11198 8.61724,12.4224 11.0417,23.00841 15.50114,-2.20213 22.97017,0.9245 22.97017,0.9245 0,0 3.21344,-7.62187 10.71046,-8.46874 7.49703,-0.84684 12.85193,5.92832 12.85193,5.92832 0,0 -4.28409,-16.09062 8.56795,-27.94661 12.85204,-11.85599 49.26624,-11.00915 49.26624,-11.00915 0,0 0.0382,-0.0999 0.11421,-0.28835 -10.10113,-0.51403 -20.22985,-0.8993 -28.82357,-0.97255 -30.28778,-0.25818 -90.8637,1.29087 -90.8637,1.29087 l 18.50947,-3.35638 c 0,0 -1.96349,-2.58205 1.12138,-2.96933 3.08486,-0.38728 5.60896,1.67845 5.60896,1.67845 0,0 -1.96285,-4.00171 2.24379,-3.87263 4.20663,0.12911 4.48706,2.45256 4.48706,2.45256 0,0 0.28035,-4.64726 2.52388,-4.64726 2.24355,0 2.24379,2.58176 2.24379,2.58176 0,0 1.40184,-4.64717 4.76715,-4.51808 3.36531,0.1291 0.56121,3.74345 0.56121,3.74345 0,0 3.08482,-1.54897 5.32835,-1.16169 2.24354,0.38729 -0.84129,3.74344 -0.84129,3.74344 0,0 5.88911,-3.35623 8.69353,-2.45256 2.80443,0.90367 1.12189,2.84013 1.12189,2.84013 0,0 5.32822,-1.67816 8.69353,-1.29087 3.36531,0.38729 9.81544,0.64543 13.46119,0.64543 3.64575,0 3.36523,-3.74382 6.16965,-4.2602 2.80442,-0.51638 1.12189,2.84014 1.12189,2.84014 0,0 5.32842,-4.90563 8.13284,-3.48558 2.80443,1.42005 -2.52388,3.74344 -2.52388,3.74344 0,0 7.01116,-2.83994 10.09603,-2.58175 3.08487,0.25819 -4.20698,2.71094 -4.20698,2.71094 0,0 8.13298,-1.67811 12.9005,-0.51624 4.76753,1.16185 8.41344,3.09851 8.41344,3.09851 0,0 -0.27428,-2.90364 5.41466,-4.09174 3.89553,-6.74275 10.232,-15.29012 18.59008,-18.45985 -17.12349,3.64976 -31.77377,7.28483 -31.77377,7.28483 0,0 -67.07798,-8.8844 -108.3908,-9.32863 z"
       style="display:inline;fill:#3b6f5e;fill-rule:evenodd;stroke-linecap:round;stroke-dasharray:1, 2;paint-order:stroke markers fill;fill-opacity:1"
       id="path47" />
    <path
       d="m 275.33912,244.32012 c -3.36531,-0.12909 -4.76715,4.51808 -4.76715,4.51808 0,0 -2.4e-4,-2.58176 -2.24379,-2.58176 -2.24353,0 -2.52388,4.64726 -2.52388,4.64726 0,0 -0.28043,-2.32345 -4.48706,-2.45256 -4.20664,-0.12908 -2.24379,3.87263 -2.24379,3.87263 0,0 -2.5241,-2.06573 -5.60896,-1.67845 -3.08487,0.38728 -1.12138,2.96933 -1.12138,2.96933 l -18.50947,3.35638 c 0,0 60.57592,-1.54905 90.8637,-1.29087 8.59372,0.0733 18.72244,0.45852 28.82357,0.97255 0.4071,-1.0087 1.89397,-4.54834 4.35477,-8.80774 -5.68894,1.1881 -5.41466,4.09174 -5.41466,4.09174 0,0 -3.64591,-1.93666 -8.41344,-3.09851 -4.76752,-1.16187 -12.9005,0.51624 -12.9005,0.51624 0,0 7.29185,-2.45275 4.20698,-2.71094 -3.08487,-0.25819 -10.09603,2.58175 -10.09603,2.58175 0,0 5.32831,-2.32339 2.52388,-3.74344 -2.80442,-1.42005 -8.13284,3.48558 -8.13284,3.48558 0,0 1.68253,-3.35652 -1.12189,-2.84014 -2.80442,0.51638 -2.5239,4.2602 -6.16965,4.2602 -3.64575,0 -10.09588,-0.25814 -13.46119,-0.64543 -3.36531,-0.38729 -8.69353,1.29087 -8.69353,1.29087 0,0 1.68254,-1.93646 -1.12189,-2.84013 -2.80442,-0.90367 -8.69353,2.45256 -8.69353,2.45256 0,0 3.08483,-3.35615 0.84129,-3.74344 -2.24353,-0.38728 -5.32835,1.16169 -5.32835,1.16169 0,0 2.8041,-3.61435 -0.56121,-3.74345 z"
       style="display:inline;fill:#254e45;fill-rule:evenodd;stroke-width:0.797704;stroke-linecap:round;stroke-dasharray:0.797704, 1.59541;paint-order:stroke markers fill;fill-opacity:1"
       id="path46" />
    <path
       d="m 37.060641,209.01995 c -1.34243,0.0153 -2.77822,0.10219 -4.3155,0.26924 -24.5965,2.67275 -28.41325,18.70893 -28.41325,18.70893 L 2.834821,339.90395 189.57278,338.8079 c -1.87885,-2.68877 -8.71606,-15.94827 25.6744,-31.05547 13.86104,-6.08895 25.09217,-9.00366 33.79277,-10.23969 -2.42446,-10.58601 -5.94974,-19.89643 -11.0417,-23.00841 -13.99456,-8.55288 -27.14047,-7.75095 -27.14047,-7.75095 0,0 0.42377,-4.2761 -4.24108,-4.54339 -4.66485,-0.26727 -5.93711,2.13785 -5.93711,2.13785 0,0 -0.42423,-3.74176 -5.08909,-4.00905 -4.66485,-0.26727 -5.51285,5.34541 -5.51285,5.34541 0,0 0.84823,-13.89838 -13.99449,-17.64027 -14.84271,-3.74188 -25.44444,3.20755 -25.44444,3.20755 0,0 -5.51311,-13.09647 -19.08359,-12.82919 -13.57048,0.2673 -14.84302,6.68177 -14.84302,6.68177 0,0 0.42417,-4.27623 -2.12029,-4.27623 -2.54447,0 -5.51284,2.67271 -5.51284,2.67271 0,0 4.66469,-8.28561 -15.691029,-16.30392 -20.35573,-8.01832 -32.22965,4e-5 -34.77411,-1.33635 -2.38544,-1.25286 -1.41676,-17.07035 -21.5532,-16.84032 z"
       style="display:inline;fill:#0f2a22;fill-rule:evenodd;stroke-width:0.705729;stroke-linecap:round;stroke-dasharray:0.705729, 1.41146;paint-order:stroke markers fill;fill-opacity:1"
       id="path45" />
    <path
       d="m 440.59518,217.59256 c -24.06228,-0.0465 -40.06422,27.49289 -40.06422,27.49289 0,0 -1.2e-4,-17.78431 -18.20716,-16.93746 -18.20707,0.84687 -28.9171,28.79307 -28.9171,28.79307 0,0 -36.4142,-0.84684 -49.26624,11.00915 -12.85204,11.85599 -8.56795,27.94661 -8.56795,27.94661 0,0 -5.3549,-6.77516 -12.85193,-5.92832 -7.49702,0.84687 -10.71046,8.46874 -10.71046,8.46874 0,0 -18.20684,-7.62192 -56.76294,9.31519 -38.55613,16.93712 -25.292,31.55156 -25.292,31.55156 l 286.19132,-0.0398 -0.64544,-89.94438 c 0,0 -3.21331,-27.09972 -29.98835,-31.334 -1.67344,-0.26465 -3.31338,-0.39016 -4.91753,-0.39326 z m -56.26168,71.91912 c 0.33677,0 0.61133,0.27456 0.61133,0.61133 0,0.33677 -0.27456,0.6134 -0.61133,0.6134 -0.33677,0 -0.6134,-0.27663 -0.6134,-0.6134 0,-0.33677 0.27663,-0.61133 0.6134,-0.61133 z"
       style="display:inline;fill:#0f2a22;fill-rule:evenodd;stroke-width:1.41162;stroke-linecap:round;stroke-dasharray:1.41162, 2.82325;paint-order:stroke markers fill;fill-opacity:1"
       id="path42" />
    <path
       d="m 384.3335,289.77523 c -0.19378,0 -0.34934,0.154 -0.34934,0.34778 0,0.19378 0.15556,0.34934 0.34934,0.34934 0.19378,0 0.34778,-0.15556 0.34778,-0.34934 0,-0.19378 -0.154,-0.34778 -0.34778,-0.34778 z"
       style="baseline-shift:baseline;display:inline;overflow:visible;vector-effect:none;fill:#487c48;enable-background:accumulate;stop-color:#000000"
       id="path41" />
    <path
       d="m 384.3335,289.51168 c -0.33677,0 -0.6134,0.27456 -0.6134,0.61133 0,0.33677 0.27663,0.6134 0.6134,0.6134 0.33677,0 0.61133,-0.27663 0.61133,-0.6134 0,-0.33677 -0.27456,-0.61133 -0.61133,-0.61133 z m 0,0.26355 c 0.19378,0 0.34778,0.154 0.34778,0.34778 0,0.19378 -0.154,0.34934 -0.34778,0.34934 -0.19378,0 -0.34934,-0.15556 -0.34934,-0.34934 0,-0.19378 0.15556,-0.34778 0.34934,-0.34778 z"
       style="baseline-shift:baseline;display:inline;overflow:visible;vector-effect:none;enable-background:accumulate;stop-color:#000000"
       id="path40" />
  </g>
</svg>
