<?xml version="1.0" encoding="UTF-8" standalone="no"?>
<!-- Created with Inkscape (http://www.inkscape.org/) -->

<svg
   width="478mm"
   height="341mm"
   viewBox="0 0 478 341"
   version="1.1"
   id="svg1"
   inkscape:version="1.4.2 (1:1.4.2+202505120737+ebf0e940d0)"
   sodipodi:docname="skyline.svg"
   xmlns:inkscape="http://www.inkscape.org/namespaces/inkscape"
   xmlns:sodipodi="http://sodipodi.sourceforge.net/DTD/sodipodi-0.dtd"
   xmlns:xlink="http://www.w3.org/1999/xlink"
   xmlns="http://www.w3.org/2000/svg"
   xmlns:svg="http://www.w3.org/2000/svg">
  <sodipodi:namedview
     id="namedview1"
     pagecolor="#ffffff"
     bordercolor="#000000"
     borderopacity="0.25"
     inkscape:showpageshadow="2"
     inkscape:pageopacity="0.0"
     inkscape:pagecheckerboard="0"
     inkscape:deskcolor="#d1d1d1"
     inkscape:document-units="mm"
     inkscape:zoom="0.56029508"
     inkscape:cx="854.90666"
     inkscape:cy="664.82825"
     inkscape:window-width="1920"
     inkscape:window-height="1011"
     inkscape:window-x="0"
     inkscape:window-y="0"
     inkscape:window-maximized="1"
     inkscape:current-layer="layer1" />
  <defs
     id="defs1">
    <linearGradient
       id="linearGradient5"
       inkscape:collect="always">
      <stop
         style="stop-color:#c6e774;stop-opacity:1;"
         offset="0"
         id="stop5" />
      <stop
         style="stop-color:#c9da9f;stop-opacity:1;"
         offset="1"
         id="stop6" />
    </linearGradient>
    <linearGradient
       id="linearGradient3"
       inkscape:collect="always">
      <stop
         style="stop-color:#53969b;stop-opacity:1;"
         offset="0"
         id="stop3" />
      <stop
         style="stop-color:#53969b;stop-opacity:0;"
         offset="1"
         id="stop4" />
    </linearGradient>
    <linearGradient
       id="linearGradient1"
       inkscape:collect="always">
      <stop
         style="stop-color:#5ca06b;stop-opacity:1;"
         offset="0"
         id="stop1" />
      <stop
         style="stop-color:#96b87c;stop-opacity:1;"
         offset="1"
         id="stop2" />
    </linearGradient>
    <linearGradient
       inkscape:collect="always"
       xlink:href="#linearGradient1"
       id="linearGradient2"
       x1="2.8022065"
       y1="254.94087"
       x2="351.81494"
       y2="244.07977"
       gradientUnits="userSpaceOnUse" />
    <linearGradient
       inkscape:collect="always"
       xlink:href="#linearGradient3"
       id="linearGradient4"
       x1="46.258507"
       y1="194.77443"
       x2="342.83875"
       y2="249.55211"
       gradientUnits="userSpaceOnUse" />
    <linearGradient
       inkscape:collect="always"
       xlink:href="#linearGradient5"
       id="linearGradient6"
       x1="209.60756"
       y1="257.04016"
       x2="477.38733"
       y2="292.92899"
       gradientUnits="userSpaceOnUse" />
  </defs>
  <g
     inkscape:label="Layer 1"
     inkscape:groupmode="layer"
     id="layer1">
    <path
       style="display:inline;fill:#f1fbf2;fill-opacity:1;fill-rule:evenodd;stroke-width:1.28821;stroke-linecap:round;stroke-dasharray:1.28821, 2.57643;paint-order:stroke markers fill"
       d="m 5.560779,18.981188 c 0,0 13.14811,-19.9163437 54.847185,-2.310062 41.699066,17.60627 45.868976,44.479017 45.868976,44.479017 0,0 15.75299,3.706574 22.23951,10.656428 6.48652,6.949841 3.70658,24.092797 3.70658,24.092797 0,0 5.97064,-0.463327 13.8997,1.853297 7.92905,2.316605 21.77618,14.826335 21.77618,14.826335 0,0 4.1699,-15.752989 13.89969,-16.679632 9.72978,-0.926654 12.97304,11.119752 12.97304,11.119752 0,0 6.0232,-9.266455 20.38621,-1.38997 14.36301,7.87649 16.21631,49.11223 16.21631,49.11223 0,0 11.11975,-1.85328 21.31286,1.38997 10.19311,3.24327 12.50972,17.14295 12.50972,17.14295 0,0 7.41317,-8.3398 15.28967,-6.48651 7.87649,1.8533 10.19309,8.80314 10.19309,8.80314 0,0 6.94986,-6.48653 16.67964,-7.8765 9.72978,-1.38997 10.05867,5.55987 21.31286,4.16991 11.25418,-1.38997 11.25418,-8.80312 11.25418,-8.80312 0,0 -7.04538,-37.06586 0,-46.79564 7.04539,-9.72979 26.7383,-18.532915 26.7383,-18.532915 0,0 -0.92663,-9.729793 8.33982,-17.606284 9.26647,-7.876491 23.16615,-1.853286 23.16615,-1.853286 0,0 -2.3166,-15.752983 5.55988,-25.482774 7.87649,-9.729785 25.9461,-14.826339 25.9461,-14.826339 0,0 2.77993,-20.386219 13.43636,-27.799379 10.65643,-7.4131727 32.54038,-8.7965855 32.54038,-8.7965855 L 473.71485,259.11994 6.7893042,257.13577 Z"
       id="path10"
       inkscape:label="layer 1"
       sodipodi:nodetypes="cscscscscscscscsscscscscscccc" />
    <path
       style="display:inline;fill:#bbe6ed;fill-opacity:1;fill-rule:evenodd;stroke-width:1.28821;stroke-linecap:round;stroke-dasharray:1.28821, 2.57643;paint-order:stroke markers fill"
       d="m 5.992805,66.583009 c 0,0 17.175714,-10.206208 37.561924,-1.403079 20.386214,8.803141 12.509723,27.799388 12.509723,27.799388 0,0 11.607284,-12.325124 23.629474,-10.656438 12.923401,1.793771 20.386214,15.289666 20.386214,15.289666 0,0 12.97304,-0.463317 21.31286,6.486524 8.33981,6.94984 6.0232,26.4094 6.0232,26.4094 0,0 22.2395,-1.38996 26.87273,5.09656 4.63323,6.48652 2.31662,12.50973 2.31662,12.50973 0,0 25.48277,-2.31662 49.57556,7.8765 14.43879,6.10871 40.77243,28.726 40.77243,28.726 0,0 6.0232,-6.02318 33.35926,-5.09653 27.33605,0.92663 36.60252,12.04639 36.60252,12.04639 0,0 6.94985,-13.8997 11.58308,-15.75299 4.63324,-1.85329 22.70282,-2.77993 22.70282,-2.77993 0,0 5.09655,-16.67963 13.43637,-19.9229 8.33981,-3.24325 19.45958,0 19.45958,0 0,0 0,-9.72978 0.92663,-11.58306 0.92665,-1.8533 4.63324,-9.7298 4.63324,-9.7298 0,0 -9.26646,-5.09655 -7.41317,-11.58307 1.8533,-6.48653 11.11975,-2.31661 11.11975,-2.31661 0,0 -3.70658,-6.94985 8.33981,-23.166155 12.0464,-16.216298 30.57932,-9.266457 30.57932,-9.266457 0,0 6.48652,-18.99625 18.99625,-24.092804 12.50972,-5.096543 24.55612,-3.706575 24.55612,-3.706575 L 473.85735,251.44234 4.1722685,241.706 Z"
       id="path11"
       sodipodi:nodetypes="cscscscscscscscscscscscscccc"
       inkscape:label="layer 2" />
    <path
       style="display:none;fill:#8192c6;fill-opacity:1;fill-rule:evenodd;stroke-width:1.28821;stroke-linecap:round;stroke-dasharray:1.28821, 2.57643;paint-order:stroke markers fill"
       d="m 6.1149942,133.72716 c 0,0 26.3095468,-8.33246 47.3042838,0.95367 20.994733,9.28615 34.105988,29.26803 34.105988,29.26803 0,0 20.994734,2.01872 35.529554,9.28613 14.53481,7.26741 20.99473,22.60971 20.99473,22.60971 0,0 20.18725,-5.24868 33.10708,-5.65243 12.91984,-0.40374 23.4172,12.11235 23.4172,12.11235 0,0 20.18725,-1.61498 29.87713,0 9.68988,1.61498 20.59099,12.51609 20.59099,12.51609 0,0 0,-7.26741 12.91984,-10.49737 12.91984,-3.22996 50.49972,-4.88302 50.49972,-4.88302 0,0 19.1266,-17.21043 37.29512,-22.45912 18.16852,-5.24868 48.85959,-5.24868 48.85959,-5.24868 0,0 3.6718,-16.38477 16.1879,-31.32333 12.51609,-14.93856 58.98366,-19.18286 58.98366,-19.18286 l 1.7894,154.71857 -472.0121274,10.33868 z"
       id="path12"
       inkscape:label="layer 3"
       sodipodi:nodetypes="cscscscscscscscccc"
       sodipodi:insensitive="true" />
    <path
       style="display:inline;fill:url(#linearGradient4);fill-opacity:1;fill-rule:evenodd;stroke-width:1.28821;stroke-linecap:round;stroke-dasharray:1.28821, 2.57643;paint-order:stroke markers fill"
       d="m 5.1752444,181.94538 c 0,0 23.8070116,-10.56349 50.4541766,2.35635 26.647161,12.91983 25.839671,22.60971 25.839671,22.60971 0,0 10.497367,-4.03745 21.398478,-1.61498 10.90111,2.42247 17.76478,11.30485 17.76478,11.30485 0,0 4.84494,-5.24868 10.09362,-2.82621 5.24868,2.42247 2.42247,8.88239 2.42247,8.88239 0,0 22.20597,1.21123 37.14453,2.82621 14.93856,1.61498 29.06963,8.0749 29.06963,8.0749 0,0 28.26214,-0.80749 45.62318,-0.80749 17.36103,0 66.21415,12.91983 66.21415,12.91983 L 5.5650526,242.84473 Z"
       id="path13"
       inkscape:label="layer 4"
       sodipodi:nodetypes="cscscscscsccc" />
    <path
       style="display:inline;fill:#84b961;fill-opacity:1;fill-rule:evenodd;stroke-width:1.05782;stroke-linecap:round;stroke-dasharray:1.05782, 2.11565;paint-order:stroke markers fill"
       d="m 4.0013453,228.55775 c 0,0 2.1613568,-3.02591 31.1235827,1.29681 28.962227,4.32273 39.120619,11.23908 39.120619,11.23908 0,0 23.558824,-5.40341 31.555853,-5.40341 7.99704,0 104.82597,11.88748 104.82597,11.88748 l -207.7067084,1.7291 z"
       id="path14"
       inkscape:label="layer 1" />
    <path
       style="display:inline;fill:url(#linearGradient2);fill-opacity:1;fill-rule:evenodd;stroke-width:1.05782;stroke-linecap:round;stroke-dasharray:1.05782, 2.11565;paint-order:stroke markers fill"
       d="m 2.8022065,254.69022 c 0,0 14.4811205,-6.0518 25.9363285,-6.0518 11.455207,0 17.507017,0.86453 17.507017,0.86453 0,0 -1.08068,-3.24204 0.648407,-3.89044 1.729089,-0.64841 3.890449,0.6484 3.890449,0.6484 0,0 -0.864542,-2.80977 2.593634,-4.10657 3.458174,-1.29682 4.32272,-1.08069 4.32272,-1.08069 0,0 0.864544,-4.53886 4.32272,-4.53886 3.458176,0 7.564759,3.89046 7.564759,3.89046 0,0 -0.460952,-3.66621 2.733359,-4.73098 3.194315,-1.06478 5.267817,2.01746 5.267817,2.01746 0,0 0.840608,-3.5866 3.642639,-4.03492 2.802028,-0.44833 4.090963,2.74599 4.090963,2.74599 0,0 -0.112082,-1.23289 1.513096,-0.9527 1.625177,0.28021 2.802028,3.13828 2.802028,3.13828 0,0 1.288934,-1.73726 2.633908,-1.7933 1.344974,-0.0561 2.185583,1.56914 2.185583,1.56914 0,0 1.288934,-1.40102 3.978882,-0.72854 2.689944,0.67249 2.633904,2.97016 2.633904,2.97016 0,0 2.50621,-1.5931 4.63857,-0.88232 2.13236,0.71079 4.12257,4.40689 4.12257,4.40689 0,0 1.70589,-1.84805 8.10297,-2.41669 6.39708,-0.56862 28.28932,1.84805 28.28932,1.84805 l 37.52956,0.42648 c 0,0 44.63741,-8.6716 56.86295,-9.09807 12.22554,-0.42648 41.50996,8.52943 41.50996,8.52943 0,0 0.42647,-2.55882 3.12747,-5.11767 2.70098,-2.55882 5.25982,0.7108 5.25982,0.7108 0,0 -2.13237,-5.97061 2.13236,-8.10298 4.26472,-2.13236 6.25492,1.13726 6.25492,1.13726 0,0 2.13236,-3.83824 5.6863,-3.26962 3.55393,0.56864 3.98041,3.12747 3.98041,3.12747 0,0 0.71078,-3.83825 3.83825,-3.83825 3.12746,0 3.69609,2.27451 3.69609,2.27451 0,0 1.13725,-2.70098 3.83825,-2.27451 2.70098,0.42647 2.13236,5.25982 2.13236,5.25982 0,0 1.27942,-0.71079 2.13236,-0.56863 0.85295,0.14215 2.27451,2.55884 2.27451,2.55884 0,0 0.14217,-3.6961 2.41669,-4.6912 2.27451,-0.9951 9.09807,5.54413 9.09807,5.54413 0,0 -3.9804,-9.80885 -1.42158,-12.93632 2.55883,-3.12746 6.65749,2.65317 6.65749,2.65317 0,0 -0.94147,-6.27646 2.51059,-6.59028 3.45205,-0.31383 5.02117,3.13823 5.02117,3.13823 0,0 3.13823,-4.07971 8.47322,-3.13823 5.335,0.94147 3.45205,7.84558 3.45205,7.84558 0,0 8.15941,-1.88295 9.4147,0 1.2553,1.88294 -2.19676,10.35616 -2.19676,10.35616 0,0 5.335,-4.70735 7.84559,-0.94146 2.51058,3.76587 -0.62765,8.78705 -0.62765,8.78705 0,0 38.60026,-3.45206 45.81818,-2.82441 7.21795,0.62765 26.9888,12.23911 26.9888,12.23911 0,0 -2.19677,-6.59029 8.47323,-11.29764 10.66998,-4.70735 18.55039,-1.19463 18.55039,-1.19463 l -2.03422,48.42073 -470.3045602,-5.48762 z"
       id="path15"
       inkscape:label="layer 2"
       sodipodi:nodetypes="cscscscscscscscscscscsccscscscscscscscscscscscscscscscccc" />
    <path
       style="display:inline;fill:url(#linearGradient6);fill-opacity:1;fill-rule:evenodd;stroke-width:1.05782;stroke-linecap:round;stroke-dasharray:1.05782, 2.11565;paint-order:stroke markers fill"
       d="m 3.24681,241.51576 72.366246,8.9283 c 0,0 123.586514,-4.69911 167.288204,-4.2292 43.7017,0.46992 114.65821,9.86812 114.65821,9.86812 0,0 62.49812,-15.50704 83.17419,-15.50704 20.67608,0 36.65367,-1.87971 36.65367,-1.87971 L 476.47021,345.01677 3.7165367,347.16175 5.5963642,244.80513 Z"
       id="path16"
       inkscape:label="layer 3"
       sodipodi:nodetypes="ccscsccccc" />
    <path
       style="display:inline;fill:#487c48;fill-opacity:1;fill-rule:evenodd;stroke:none;stroke-width:0.843831;stroke-linecap:round;stroke-dasharray:0.843831, 1.68766;stroke-opacity:1;paint-order:stroke markers fill"
       d="m 470.73277,332.35952 c 0,0 -52.21196,-4.36993 -84.2511,-4.64305 -32.03915,-0.27311 -96.11746,1.3656 -96.11746,1.3656 l 19.57949,-3.55056 c 0,0 -2.07662,-2.73122 1.18663,-3.14089 3.26324,-0.40967 5.93318,1.77528 5.93318,1.77528 0,0 -2.07662,-4.23336 2.37327,-4.09681 4.44987,0.13657 4.74654,2.59465 4.74654,2.59465 0,0 0.29666,-4.91616 2.66992,-4.91616 2.37328,0 2.37328,2.7312 2.37328,2.7312 0,0 1.48329,-4.91617 5.04319,-4.77962 3.55991,0.13657 0.59333,3.96025 0.59333,3.96025 0,0 3.26325,-1.63871 5.63651,-1.22904 2.37327,0.40968 -0.88997,3.96025 -0.88997,3.96025 0,0 6.22983,-3.55057 9.19642,-2.59464 2.96659,0.95592 1.18663,3.00431 1.18663,3.00431 0,0 5.63652,-1.77528 9.19643,-1.36559 3.5599,0.40968 10.38306,0.68281 14.23962,0.68281 3.85656,0 3.55991,-3.96026 6.52649,-4.5065 2.96658,-0.54624 1.18664,3.00433 1.18664,3.00433 0,0 5.63652,-5.1893 8.6031,-3.68713 2.96659,1.50216 -2.66993,3.96025 -2.66993,3.96025 0,0 7.41647,-3.00433 10.67972,-2.73121 3.26325,0.27312 -4.44988,2.86776 -4.44988,2.86776 0,0 8.6031,-1.77528 13.6463,-0.54623 5.0432,1.22904 8.89977,3.27745 8.89977,3.27745 0,0 -0.29667,-3.14089 5.93317,-4.36994 6.22984,-1.22904 12.16301,2.73122 12.16301,2.73122 0,0 3.85657,-6.14523 14.23963,-6.41835 10.38306,-0.27312 10.08639,6.00866 10.08639,6.00866 0,0 1.48329,-3.14089 4.74654,-2.59465 3.26325,0.54624 2.07662,3.8237 2.07662,3.8237 0,0 4.44988,-5.59898 8.30645,-4.64306 3.85656,0.95592 -4.15323,7.92049 -4.15323,7.92049 0,0 3.5599,-1.91183 6.22983,-1.63872 2.66994,0.27313 -4.74653,7.78394 -4.74653,7.78394 z"
       id="path34" />
    <path
       style="display:inline;fill:#244b2e;fill-opacity:1;fill-rule:evenodd;stroke:none;stroke-width:0.810948;stroke-linecap:round;stroke-dasharray:0.810948, 1.6219;stroke-opacity:1;paint-order:stroke markers fill"
       d="m 2.6867324,247.38825 c 0,0 3.4651673,-23.32308 25.7962996,-27.21024 22.331143,-3.8872 21.176083,22.15692 23.486202,24.10051 2.310119,1.9436 13.090658,-9.71796 31.571596,1.9436 18.48094,11.66154 14.245728,23.71181 14.245728,23.71181 0,0 2.695132,-3.8872 5.005252,-3.8872 2.31012,0 1.92509,6.2195 1.92509,6.2195 0,0 1.15506,-9.32922 13.47569,-9.71796 12.32062,-0.38872 17.32588,18.65849 17.32588,18.65849 0,0 9.62549,-10.10669 23.10117,-4.66464 13.47569,5.44207 12.70564,25.6554 12.70564,25.6554 0,0 0.77005,-8.16307 5.00526,-7.77435 4.23521,0.38873 4.62023,5.83078 4.62023,5.83078 0,0 1.15506,-3.49847 5.39027,-3.10976 4.23521,0.38874 3.8502,6.60821 3.8502,6.60821 0,0 11.9356,-1.16614 24.64124,11.27285 12.70565,12.43896 13.43009,31.92192 13.43009,31.92192 L 2.6867324,346.9002 Z"
       id="path32"
       sodipodi:nodetypes="cssscscscscscscsccc" />
    <path
       style="fill:none;fill-rule:evenodd;stroke:#b1328c;stroke-width:2.22143;stroke-linecap:round;stroke-dasharray:none;stroke-opacity:1;paint-order:stroke markers fill"
       d="m 152.9961,318.25897 c 0,0 -11.28637,-1.90432 -2.62201,-3.21567 9.15225,-1.3852 6.43132,2.2757 3.26515,2.47357 -3.1662,0.19789 -7.02499,-0.0494 -7.02499,-0.0494"
       id="path38"
       sodipodi:nodetypes="cssc" />
    <path
       style="fill:none;fill-rule:evenodd;stroke:#b1328c;stroke-width:2.13369;stroke-linecap:round;stroke-dasharray:none;stroke-opacity:1;paint-order:stroke markers fill"
       d="m 65.929861,274.94556 c 0,0 10.840596,-1.82911 2.518448,-3.08866 -8.790769,-1.33049 -6.177302,2.18582 -3.136182,2.37588 3.041141,0.19006 6.747525,-0.0474 6.747525,-0.0474"
       id="path38-4"
       sodipodi:nodetypes="cssc" />
  </g>
</svg>
